<svg height="30" viewBox="0 0 30 30" width="30" xmlns="http://www.w3.org/2000/svg">
  <title>Cart</title>
  <path d="m18.7366279 21.2776414c0-.4672501.1710137-.8771187.5084191-1.2186758.3411029-.3452004.7533845-.5200776 1.2405424-.5200776.4732919 0 .8828003.1748772 1.2211301.5200776.3411029.3415571.5111922.7514257.5111922 1.2186758 0 .4699826-.1700893.8734753-.5111922 1.2123-.3383298.3397355-.7478382.5100586-1.2211301.5100586-.4779139 0-.8864979-.1703231-1.2312985-.5100586-.3448005-.3388247-.517663-.7423174-.517663-1.2123zm-9.89198554 0c0-.4672501.16731608-.8771187.50841903-1.2186758.33740536-.3452004.74691381-.5200776 1.22482771-.5200776.4954774 0 .9142298.1748772 1.258106.5200776.3475737.3415571.517663.7514257.517663 1.2186758 0 .4699826-.1700893.8734753-.517663 1.2123-.3438762.3397355-.7626286.5100586-1.258106.5100586-.4779139 0-.88742235-.1703231-1.22482771-.5100586-.34110295-.3388247-.50841903-.7423174-.50841903-1.2123zm18.00820214-17.93948997c.3531201 0 .6470787.13480121.8800271.40622525.232024.26869159.313371.56288611.2421923.88349438l-1.6398824 8.65277994c-.0628591.2504752-.1950481.4617852-.4039621.6293759-.2070652.171234-.4585015.2532077-.7524601.2532077h-16.47092788l.53060459 2.5175036c.04067352.1584825.13034015.2923728.26622669.397117.13681094.1029226.28563906.1584825.44925755.1584825h13.00813205c.1608453 0 .3004294.05556.417828.171234.1146254.115674.1747112.2504752.1747112.412601v1.166759c0 .1584825-.0563882.2932837-.1682404.3962063-.1118522.1047441-.2532851.15575-.4242988.15575h-2.4764629-9.9077003-1.58164543c-.16454289 0-.34664934-.0145731-.55463894-.0510059-.20798961-.0337003-.38824726-.0828845-.53984858-.1411769-.06193468-.0209488-.13218894-.0847062-.21353599-.1949152-.08042265-.1102091-.1580721-.2322589-.23572155-.3670601-.07395186-.1338904-.13865974-.2686916-.18857724-.4062252-.0536151-.1338904-.08781783-.241367-.1053814-.3206083l-3.26774778-15.21431965c-.04067352-.1584825-.13034015-.28690797-.26715109-.38800887-.13588654-.10019009-.28748785-.14937431-.44925754-.14937431h-2.58184429c-.39749124 0-.59253927-.19491526-.59253927-.58383494v-1.1394345c0-.38709806.19504803-.58292413.59253927-.58292413h3.50901572c.16454289 0 .35681772.02185965.5795977.06102487.22000678.04007603.40303763.07924125.54631936.11931728.06101028.03916522.13218894.11294155.21908238.21677491.08781783.10383336.16454289.22315064.23572155.35066529.07117866.13115793.13311335.26322668.18303085.39711706.04991751.13480121.08689344.2450103.1053814.32425155l.41228162 1.86900047z" fill="currentcolor" fill-rule="evenodd" transform="matrix(-1 0 0 1 29 6)"/>
</svg>
