<svg xmlns="http://www.w3.org/2000/svg" width="30" height="30" viewBox="0 0 30 30"><title xmlns="http://www.w3.org/1999/xhtml">Compare</title><path fill="currentColor" d="M0 9.683C0 8.947.633 8.35 1.414 8.35h10.728L8.899 5.292a1.283 1.283 0 0 1-.385-1.296c.129-.466.515-.83 1.01-.953a1.472 1.472 0 0 1 1.375.364l5.656 5.333a1.28 1.28 0 0 1 0 1.886L10.9 15.959c-.355.347-.881.486-1.375.364a1.376 1.376 0 0 1-1.01-.953c-.13-.466.018-.961.385-1.296l3.243-3.058H1.414C.634 11.016 0 10.42 0 9.683Zm28.586 9.333H17.858l3.243-3.057a1.28 1.28 0 0 0-.017-1.869 1.476 1.476 0 0 0-1.983-.016l-5.656 5.333a1.28 1.28 0 0 0 0 1.885l5.656 5.334a1.476 1.476 0 0 0 1.983-.017 1.28 1.28 0 0 0 .017-1.869l-3.243-3.057h10.728c.78 0 1.414-.597 1.414-1.333 0-.737-.633-1.334-1.414-1.334Z"/></svg>