<svg xmlns="http://www.w3.org/2000/svg" xmlns:xlink="http://www.w3.org/1999/xlink" width="28" height="20" viewBox="0 0 28 20" version="1.1">
    <title>Delivery</title>
    <g id="Icons" stroke="none" stroke-width="1" fill="none" fill-rule="evenodd">
        <g id="Icons-(Core)" transform="translate(-599.000000, -250.000000)" fill="#333F48">
            <g id="icon/delivery" transform="translate(599.000000, 250.000000)">
                <path d="M22.4788512,15.1274788 C23.8707577,15.1274788 24.9991208,16.2182298 24.9991208,17.5637394 C24.9991208,18.909249 23.8707577,20 22.4788512,20 C21.0869448,20 19.9585816,18.909249 19.9585816,17.5637394 C19.9585816,16.2182298 21.0869448,15.1274788 22.4788512,15.1274788 Z M23.4165725,6 L28,11.5887429 L28,17.1333333 L26.0224771,17.1333333 C25.7434617,15.4964288 24.2739028,14.2478756 22.502924,14.2478756 C20.7319452,14.2478756 19.2623862,15.4964288 18.9833708,17.1333333 L18,17.1333333 L18,6 L23.4165725,6 Z M20.3448276,7.26666667 L20.3448276,10.4 L25.1034483,10.4 L22.6175066,7.30261311 L20.3448276,7.26666667 Z M5.24758842,15.1274788 C6.54572396,15.1274788 7.59807074,16.2182298 7.59807074,17.5637394 C7.59807074,18.909249 6.54572396,20 5.24758842,20 C3.94945289,20 2.89710611,18.909249 2.89710611,17.5637394 C2.89710611,16.2182298 3.94945289,15.1274788 5.24758842,15.1274788 Z M17,0 L17,17.1104975 L8.59207107,17.1104975 C8.33126791,15.4712804 6.95763198,14.2209632 5.3022508,14.2209632 C3.64686963,14.2209632 2.2732337,15.4712804 2.01243054,17.1104975 L0,17.1104975 L0,0 L17,0 Z" id="Combined-Shape"/>
            </g>
        </g>
    </g>
</svg>