<svg height="30" viewBox="0 0 30 30" width="30" xmlns="http://www.w3.org/2000/svg" fill="#333f48">
<title>E-Mail</title>
  <path d="m13.9763295 13.798668c-.3126296 0-.6511628-.0936998-1.0164928-.2746689-.3644368-.1809692-.7208346-.4014392-1.0718729-.656817-.3483587-.2553778-.6877852-.5226977-1.0227454-.8065528-.3349603-.2792621-.6288321-.5125929-.88340196-.700911-1.22461479-.9590446-2.43851086-1.90522852-3.63900852-2.84222615-1.19960442-.94067212-2.42332599-1.89144913-3.66669856-2.85968001-.23313236-.18739952-.50556672-.44002143-.81373018-.75878435-.30994992-.31876292-.59756915-.66875909-.86285769-1.05458164-.27064791-.38582256-.49842091-.77440098-.68599866-1.17308429-.18847099-.3950088-.28136664-.75602848-.28136664-1.07662864 0-.42716069.18311162-.80012249.5439755-1.11888541.36533001-.31600704.75656362-.47584781 1.17191438-.47584781h24.52087923c.4153507 0 .8021182.15984077 1.1611956.47584781.3608639.31876292.5404026.69172472.5404026 1.11888541 0 .32060016-.0928957.68161984-.2831531 1.07662864-.1857913.39868331-.4153507.78726173-.6806393 1.17308429-.2688614.38582255-.5591604.73581872-.8691103 1.05458164-.306377.31876292-.5761317.57138483-.8110505.75878435-1.2460522.95628876-2.4679873 1.90614713-3.6711647 2.84865651-1.197818.94434663-2.4108208 1.89420505-3.6381153 2.85324965-.2536766.1883181-.5457619.4216489-.8726832.700911-.3278144.2838551-.6681341.551175-1.0236386.8065528s-.7154752.4758478-1.0781255.656817c-.3644368.1809691-.6993971.2746689-1.0048808.2746689h-.0294765zm0 3.5762076c.5582671 0 1.0924171-.0799204 1.5970906-.242517.5055667-.1598408.9959486-.370206 1.4595336-.6255837.463585-.2544592.9164513-.5475006 1.3523463-.8726939.4332153-.3288678.8592848-.6669218 1.2746356-1.0114063 1.26481-1.0371277 2.5439117-2.0586389 3.8292659-3.0535099 1.2862475-.9939524 2.580534-1.99157925 3.888219-2.99288064.098255-.08175763.2054423-.1607594.3099499-.24067978.1089737-.07716451.2108017-.16994565.3126296-.27466891v14.14131513c0 .4887086-.1697132.9121948-.5082464 1.2658655-.3385332.3536706-.7467381.5318839-1.2228283.5318839h-24.52087923c-.47698345 0-.88697483-.1782133-1.22997416-.5318839-.34389256-.3536707-.51807191-.7771569-.51807191-1.2658655v-14.14131513c.10182793.10472326.20365585.1975044.31352283.27466891.10540083.07992038.20812198.15892215.31352282.24067978 1.30411204 1.00130139 2.60375794 1.99892824 3.88553929 2.99288064 1.28982039.994871 2.56266947 2.0163822 3.82926595 3.0535099.3939133.3261119.81015728.6503866 1.24694549.9792544.43232202.3279492.88608162.6255837 1.35055982.8892291.4644783.2645641.9557534.4813596 1.4657862.6412004.5118194.1625966 1.0352506.242517 1.5711871.242517z" fill-rule="evenodd" transform="translate(1 3)"/>
</svg>

