<svg xmlns="http://www.w3.org/2000/svg" version="1.0" width="159.000000" height="198.000000" viewBox="0 0 159.000000 198.000000" preserveAspectRatio="xMidYMid meet"><title xmlns="http://www.w3.org/1999/xhtml">Find</title>

<g transform="translate(0.000000,198.000000) scale(0.100000,-0.100000)" fill="currentColor" stroke="none">
<path d="M708 1900 c-217 -39 -398 -172 -488 -358 -44 -91 -62 -174 -62 -282 1 -162 37 -255 168 -431 105 -140 215 -308 303 -459 81 -140 177 -280 191 -280 15 0 82 96 170 246 142 238 191 313 298 458 159 215 195 302 194 471 0 145 -34 251 -119 372 -76 109 -225 211 -363 248 -68 19 -229 27 -292 15z m215 -336 c25 -8 67 -34 93 -57 156 -138 113 -382 -84 -469 -66 -30 -191 -22 -254 15 -87 51 -137 126 -145 218 -19 209 186 363 390 293z"/>
</g>
</svg>