<svg height="30" viewBox="0 0 30 30" width="30" xmlns="http://www.w3.org/2000/svg">
  <title>United States</title>
  <g fill="none" transform="translate(0 4)">
    <path d="m0 0h30v1.69583333h-30zm0 3.38708333h30v1.69583334h-30zm0 3.3825h30v1.69583334h-30zm0 3.38249997h30v1.6958334h-30zm0 3.3916667h30v1.6866667h-30zm0 3.3779167h30v1.6958333h-30zm0 3.3825h30v1.6958333h-30z" fill="#bd3d44"/>
    <path d="m0 1.69583333h30v1.69125h-30zm0 3.3825h30v1.69125h-30zm0 3.3825h30v1.69583337h-30zm0 3.38708337h30v1.6958333h-30zm0 3.3825h30v1.6958333h-30zm0 3.3825h30v1.6958333h-30z" fill="#fff"/>
    <path d="m0 0h16v11h-16z" fill="#192f5d"/>
    <path d="m.63666466 0 .15352198.48501712h.47862733l-.38832029.29666096.14900662.48501713-.39283564-.30136987-.38832029.29666096.14449127-.48030822-.39283564-.29666096h.49217339zm2.74533414 0 .14900662.48501712h.48765804l-.39283565.29666096.14449127.48501713-.38832028-.30136987-.39283565.29666096.14900663-.48030822-.38832029-.29666096h.47862733zm2.74533413 0 .14900662.48501712h.48314269l-.38832029.29666096.14900662.48501713-.39283564-.30136987-.39283564.29666096.14900662-.48030822-.39283564-.29666096h.48765804zm2.74533414 0 .14900662.48501712h.48765804l-.39283564.29666096.14900662.48501713-.39283564-.30136987-.39283564.29666096.15352197-.48030822-.39735099-.29666096h.48314268zm2.74533413 0 .1490066.48501712h.4831427l-.3883203.29666096.1490066.48501713-.3928356-.30136987-.3928356.29666096.1490066-.48030822-.3883203-.29666096h.4831427zm2.7453341 0 .1490067.48501712h.487658l-.397351.29666096.153522.48501713-.3928357-.30136987-.3928356.29666096.153522-.48030822-.397351-.29666096h.487658zm-12.35400357 1.22431507.14900662.48030822h.49217339l-.39283564.29195205.14449127.48501713-.38380494-.29666096-.39283564.29666096.13997592-.48501713-.37928959-.29195205h.48314269zm2.74533413 0 .15352198.48030822h.48314268l-.39735099.29195205.15352198.48501713-.39283565-.29666096-.39283564.29666096.14900663-.48501713-.39283565-.29195205h.48765804zm2.74533414 0 .14900662.48030822h.48765804l-.39283564.29195205.14900662.48501713-.39283564-.29666096-.39283564.29666096.14900662-.48501713-.38832029-.29195205h.47862734zm2.7453341 0 .153522.48030822h.4831427l-.397351.29195205.153522.48501713-.3928357-.29666096-.38832025.29666096.14449125-.48501713-.39283562-.29195205h.49217342zm2.7453342 0 .1490066.48030822h.487658l-.3928356.29195205.1490066.48501713-.3928356-.29666096-.3928357.29666096.1490067-.48501713-.3883203-.29195205h.4831426zm-12.35400364 1.20547945.15352198.48972603h.47862733l-.38832029.29666096.14900662.48030822-.39283564-.29666096-.38832029.29666096.14449127-.48030822-.39283564-.29666096h.49217339zm2.74533414 0 .14900662.48972603h.48765804l-.39283565.29666096.14449127.48030822-.38832028-.29666096-.39283565.29666096.14900663-.48501713-.38832029-.29666096h.47862733zm2.74533413 0 .14900662.48501712h.48314269l-.38832029.29666096.14900662.48030822-.39283564-.29666096-.39283564.29666096.14900662-.48501712-.39283564-.29666096h.48765804zm2.74533414 0 .14900662.48501712h.48765804l-.39283564.29666096.14900662.48030822-.39283564-.29666096-.39283564.29666096.15352197-.48501712-.39735099-.29666096h.48314268zm2.74533413 0 .1490066.48501712h.4831427l-.3883203.29666096.1490066.48030822-.3928356-.29666096-.3928356.29666096.1490066-.48501712-.3883203-.29666096h.4831427zm2.7453341 0 .1490067.48501712h.487658l-.397351.29666096.153522.48030822-.3928357-.29666096-.3928356.29666096.153522-.48501712-.397351-.29666096h.487658zm-12.35400357 1.22431507.14900662.48030822h.49217339l-.39283564.29666096.14900662.48501712-.39283564-.30136986-.39283564.29666096.14900662-.48030822-.38832029-.29666096h.48314269zm2.74533413 0 .15352198.48030822h.48314268l-.39735099.29666096.15352198.48501712-.39283565-.30136986-.39283564.29666096.14900663-.48030822-.39283565-.29666096h.48765804zm2.74533414 0 .14900662.48030822h.48765804l-.39283564.29666096.14900662.48501712-.39283564-.30136986-.39283564.29666096.14900662-.48030822-.38832029-.29666096h.47862734zm2.7453341 0 .153522.48030822h.4831427l-.3928356.29666096.1490066.48501712-.3928357-.30136986-.38832025.29666096.14449125-.48030822-.39283562-.29666096h.49217342zm2.7453342 0 .1490066.48030822h.487658l-.3928356.29666096.1490066.48501712-.3928356-.30136986-.3928357.29666096.1490067-.48030822-.3883203-.29666096h.4831426zm-12.35400364 1.21960616.15352198.48030822h.47862733l-.38832029.29666096.14900662.48501712-.39283564-.30136986-.38832029.29666096.14449127-.48030822-.39283564-.29666096h.49217339zm2.74533414 0 .14900662.48030822h.48765804l-.39283565.29666096.14449127.48030822-.38832028-.29666096-.39283565.29666096.14900663-.48030822-.38832029-.29666096h.47862733zm2.74533413 0 .14900662.48030822h.48314269l-.38832029.29666096.14900662.48501712-.39283564-.30136986-.39283564.29666096.14900662-.48030822-.39283564-.29666096h.48765804zm2.74533414 0 .14900662.48030822h.48765804l-.39283564.29666096.14900662.48501712-.39283564-.30136986-.39283564.29666096.15352197-.48030822-.39735099-.29666096h.48314268zm2.74533413 0 .1490066.48030822h.4831427l-.3883203.29666096.1490066.48501712-.3928356-.30136986-.3928356.29666096.1490066-.48030822-.3883203-.29666096h.4831427zm2.7453341 0 .1490067.48030822h.487658l-.397351.29666096.153522.48501712-.3928357-.30136986-.3928356.29666096.1490066-.48030822-.397351-.29666096h.4876581zm-12.35400357 1.21489726.14900662.48501713h.49217339l-.39283564.29195205.14900662.48501713-.39283564-.30136987-.39283564.30136987.14900662-.48501713-.38832029-.29666096h.48314269zm2.74533413 0 .15352198.48501713h.48314268l-.39735099.29195205.15352198.48501713-.39283565-.30136987-.39283564.30136987.14900663-.48501713-.39283565-.29666096h.48765804zm2.74533414 0 .14900662.48501713h.48765804l-.39283564.29195205.14900662.48501713-.39283564-.30136987-.39283564.30136987.14900662-.48501713-.38832029-.29666096h.47862734zm2.7453341 0 .153522.48501713h.4831427l-.3928356.29195205.1490066.48501713-.3928357-.30136987-.38832025.30136987.14449125-.48501713-.39283562-.29666096h.49217342zm2.7453342 0 .1490066.48501713h.487658l-.3928356.29195205.1490066.48501713-.3928356-.30136987-.3928357.30136987.1490067-.48501713-.3883203-.29666096h.4831426zm-12.35400364 1.21489726.15352198.48501713h.47862733l-.38832029.29666096.14900662.47559931-.39283564-.29195205-.38832029.29195205.14449127-.48030822-.39283564-.29666096h.49217339zm2.74533414 0 .14900662.48501713h.48765804l-.39283565.29666096.14900663.47559931-.39283564-.29195205-.39283565.29195205.15352198-.48030822-.39283564-.29666096h.47862733zm2.74533413 0 .14900662.48501713h.48314269l-.38832029.29666096.14900662.47559931-.39283564-.29195205-.39283564.29195205.14900662-.48030822-.39283564-.29666096h.48765804zm2.74533414 0 .14900662.48501713h.48765804l-.39283564.29666096.14900662.47559931-.39283564-.29195205-.39283564.29195205.15352197-.48030822-.39735099-.29666096h.48314268zm2.74533413 0 .1490066.48501713h.4831427l-.3883203.29666096.1490066.47559931-.3928356-.29195205-.3928356.29195205.1490066-.48030822-.3883203-.29666096h.4831427zm2.7453341 0 .1490067.48501713h.487658l-.397351.29666096.153522.47559931-.3928357-.29195205-.3928356.29195205.153522-.48030822-.397351-.29666096h.487658zm-12.35400357 1.21960617.14900662.48030822h.49217339l-.39283564.29666096.14900662.48501712-.39283564-.30136986-.39283564.29666096.14900662-.48030822-.38832029-.29666096h.48314269zm2.74533413 0 .15352198.48030822h.48314268l-.39735099.29666096.15352198.48501712-.39283565-.30136986-.39283564.29666096.14900663-.48030822-.39283565-.29666096h.48765804zm2.74533414 0 .14900662.48030822h.48765804l-.39283564.29666096.14900662.48501712-.39283564-.30136986-.39283564.29666096.14900662-.48030822-.38832029-.29666096h.47862734zm2.7453341 0 .153522.48030822h.4831427l-.3928356.29666096.1490066.48501712-.3928357-.30136986-.38832025.29666096.14449125-.48030822-.39283562-.29666096h.49217342zm2.7453342 0 .1490066.48030822h.487658l-.3928356.29666096.1490066.48501712-.3928356-.30136986-.3928357.29666096.1490067-.48030822-.3883203-.29666096h.4831426zm-12.35400364 1.21960616.15352198.4803082h.47862733l-.38832029.296661.14900662.4803082-.39283564-.296661-.38832029.296661.14449127-.4850171-.39283564-.296661h.49217339zm2.74533414 0 .14900662.4803082h.48765804l-.39283565.296661.14900663.4803082-.39283564-.296661-.39283565.296661.15352198-.4850171-.39283564-.296661h.47862733zm2.74533413 0 .14900662.4803082h.48314269l-.37928958.296661.14900662.4803082-.39283564-.296661-.39283564.296661.14900662-.4850171-.39283564-.296661h.48765803zm2.74533414 0 .14900662.4803082h.48765804l-.39283564.296661.14900662.4803082-.39283564-.296661-.39283564.296661.15352197-.4850171-.39735099-.296661h.48314268zm2.74533413 0 .1490066.4803082h.4831427l-.3883203.296661.1490066.4803082-.3928356-.296661-.3928356.296661.1490066-.4850171-.3883203-.296661h.4831427zm2.7453341 0 .1490067.4803082h.487658l-.397351.296661.153522.4803082-.3928357-.296661-.3928356.296661.153522-.4850171-.397351-.296661h.487658z" fill="#fff"/>
  </g>
</svg>
