<svg xmlns="http://www.w3.org/2000/svg" width="18" height="18" viewBox="0 0 18 18">
<title>International</title>
  <path fill="currentcolor" fill-rule="evenodd" d="M9.00046873,0 C4.03666476,0 0,4.0378125 0,9 C0,13.9621875 4.03666476,18 9.00046873,18 C13.9623978,18 18,13.9621875 18,9 C18,4.0378125 13.9623978,0 9.00046873,0 L9.00046873,0 Z M16.6763189,9 C16.6763189,10.7559375 16.0801,12.375 15.0864017,13.66875 C14.8051664,13.449375 14.5061195,12.8559375 14.7873548,12.2409375 C15.0714025,11.6221875 15.1454612,10.1896875 15.0798396,9.631875 C15.0179678,9.075 14.7282954,7.7334375 13.9417739,7.7203125 C13.1561898,7.7090625 12.6171554,7.449375 12.1503047,6.5175 C11.1819176,4.57875 13.9680225,4.2065625 12.9996354,3.1340625 C12.728712,2.8321875 11.32816,4.3734375 11.1228582,2.319375 C11.1097339,2.1721875 11.2494141,1.951875 11.4378418,1.723125 C14.4789334,2.745 16.6763189,5.6203125 16.6763189,9 L16.6763189,9 Z M7.94583615,1.3996875 C7.76209572,1.7578125 7.27743347,1.903125 6.9830738,2.1721875 C6.34185719,2.7525 6.06624655,2.671875 5.72126452,3.22875 C5.37347013,3.785625 4.25227853,4.5871875 4.25227853,4.9903125 C4.25227853,5.3934375 4.81849904,5.8678125 5.10160929,5.7759375 C5.38471955,5.6821875 6.13186813,5.6878125 6.57059528,5.8415625 C7.01025988,5.9971875 10.2397792,6.1528125 9.21045779,8.8828125 C8.88422478,9.7509375 7.45461174,9.6046875 7.07400656,11.041875 C7.01682204,11.2528125 6.81901984,12.15375 6.80683298,12.448125 C6.7833967,12.90375 7.12931618,14.62125 6.68965158,14.62125 C6.24811208,14.62125 5.06036144,13.0846875 5.06036144,12.80625 C5.06036144,12.5278125 4.75287745,11.551875 4.75287745,10.715625 C4.75287745,9.8803125 3.32982657,9.8934375 3.32982657,8.7825 C3.32982657,7.78125 4.10134889,7.2825 3.92792042,6.8015625 C3.75824176,6.3234375 2.40268736,6.3075 1.8374043,6.2484375 C2.82454039,3.688125 5.14660695,1.7878125 7.94583615,1.3996875 L7.94583615,1.3996875 Z M6.5855945,16.284375 C7.04682048,16.040625 7.09369304,15.725625 7.51179626,15.7096875 C7.98989636,15.688125 8.3789386,15.523125 8.91797302,15.4040625 C9.39607312,15.3 10.251966,14.814375 11.0047393,14.7525 C11.6403312,14.7009375 12.8937035,14.7853125 13.2311859,15.3984375 C12.0171866,16.205625 10.5613249,16.67625 8.99953127,16.67625 C8.15676267,16.67625 7.34492995,16.5365625 6.5855945,16.284375 L6.5855945,16.284375 Z"/>
</svg>
