<svg xmlns="http://www.w3.org/2000/svg" viewBox="0 0 43.62 44.02" width="43.62" height="44.02">
  <title>Mark</title>
  <path fill="currentcolor" d="M11.75,2.48c-2.11,4.87-2.29,10.36-.5,15.36,1.65,4.49,5.07,8.11,9.46,10v.11c-2.99,1.73-6.38,2.66-9.83,2.71-3.77.05-7.42-1.25-10.32-3.66-.83-3.63-.74-7.41.27-11,1.09,3.34,3.55,6.06,6.76,7.48l.59.26-.33-.56c-2.8-4.93-3.5-10.79-1.94-16.24,1.68-1.8,3.66-3.31,5.84-4.46ZM29.27,39.17c1.95-4.89,1.39-10.73-1.53-16h-.11c-2.92,6.68-9.6,10.92-16.89,10.72-2.85,0-5.68-.6-8.29-1.75,1.13,2.19,2.62,4.17,4.41,5.86,1.87.55,3.81.83,5.76.83h0c3.64,0,7.22-.94,10.37-2.76l.56-.33-.26.6c-1.39,3.24-4.1,5.72-7.45,6.83,3.56,1.02,7.32,1.12,10.93.27,1.04-1.29,1.89-2.73,2.5-4.27ZM43.05,17c-2.88-2.42-6.53-3.74-10.3-3.71-3.45.05-6.84.98-9.83,2.71v.11c4.39,1.89,7.81,5.51,9.46,10,1.79,5,1.61,10.49-.5,15.36,2.18-1.15,4.16-2.66,5.84-4.46,1.56-5.46.85-11.31-1.95-16.24l-.33-.56.55.31c3.23,1.41,5.7,4.13,6.79,7.48,1.01-3.59,1.1-7.37.27-11ZM43.05,17c-2.88-2.42-6.53-3.74-10.3-3.71-3.45.05-6.84.98-9.83,2.71v.11c4.39,1.89,7.81,5.51,9.46,10,1.79,5,1.61,10.49-.5,15.36,2.18-1.15,4.16-2.66,5.84-4.46,1.56-5.46.85-11.31-1.95-16.24l-.33-.56.55.31c3.23,1.41,5.7,4.13,6.79,7.48,1.01-3.59,1.1-7.37.27-11ZM41.16,11.84c-1.13-2.18-2.62-4.15-4.4-5.84-1.87-.56-3.82-.85-5.77-.85-3.64,0-7.21.96-10.36,2.78l-.56.33.26-.59c1.39-3.24,4.11-5.73,7.46-6.83-3.56-1.02-7.32-1.12-10.93-.27-1.05,1.28-1.9,2.72-2.52,4.26-1.95,4.89-1.39,10.73,1.53,16h.11c2.92-6.68,9.6-10.92,16.89-10.72,2.85,0,5.68.6,8.29,1.75v-.02Z"/>
</svg>
