<svg height="30" viewBox="0 0 30 30" width="30" xmlns="http://www.w3.org/2000/svg">
  <title>Search</title>
  <path d="m10.7481551-0c5.9358543 0 10.7472642 4.6375585 10.7472642 10.3570136 0 2.1357616-.6707153 4.1204664-1.820249 5.7691855l8.3248297 8.0244814-3.9943612 3.8493195-8.6133478-8.3001098c-1.4056564.6500288-2.9807463 1.014137-4.6441359 1.014137-5.93585418 0-10.7481551-4.6366998-10.7481551-10.3570136 0-5.7194551 4.81230092-10.3570136 10.7481551-10.3570136zm0 4.02190779c-3.62994143 0-6.5747025 2.83611474-6.5747025 6.33510581 0 3.4989911 2.94476107 6.3359645 6.5747025 6.3359645 3.6299415 0 6.5738116-2.8369734 6.5738116-6.3359645 0-3.49899107-2.9438701-6.33510581-6.5738116-6.33510581z" fill="currentcolor" fill-rule="evenodd" transform="translate(1 1)"/>
</svg>
