<svg xmlns="http://www.w3.org/2000/svg" viewBox="-259.7 387.1 22 22" enable-background="new -259.7 387.1 22 22" width="22" height="22">
  <title>Instagram</title>
  <path fill="currentcolor" d="M-245 392.1h-7.4c-1.3 0-2.3 1-2.3 2.3V401.7c0 1.3 1 2.3 2.3 2.3h7.4c1.3 0 2.3-1 2.3-2.3V394.4c0-1.3-1-2.3-2.3-2.3zm.7 1.4h.3v2.1h-2v-2l1.7-.1zm-6.1 3.4c.4-.5 1-.9 1.7-.9s1.3.3 1.7.9c.3.3.4.8.4 1.2 0 1.2-.9 2.1-2.1 2.1-1.2 0-2.1-.9-2.1-2.1 0-.5.2-.9.4-1.2zm6.6 4.9c0 .6-.5 1.1-1.1 1.1h-7.4c-.6 0-1.1-.5-1.1-1.1v-4.9h1.8c-.2.4-.2.8-.2 1.2 0 1.8 1.5 3.3 3.3 3.3 1.8 0 3.3-1.5 3.3-3.3 0-.4-.1-.9-.2-1.2h1.8v4.9z"/>
</svg>
