<svg xmlns="http://www.w3.org/2000/svg" viewBox="-259.7 387.1 22 22" enable-background="new -259.7 387.1 22 22" width="22" height="22">
  <title>Twitter</title>
  <path fill="currentcolor" d="M-243.1 395.9v.4c0 3.7-2.8 7.9-7.9 7.9-1.6 0-3-.5-4.2-1.2h.7c1.3 0 2.5-.4 3.4-1.2-1.2 0-2.2-.8-2.6-1.9h.5c.3 0 .5 0 .7-.1-1.3-.3-2.2-1.4-2.2-2.7.4.2.8.3 1.3.3-.7-.5-1.2-1.3-1.2-2.3 0-.5.1-1 .4-1.4 1.4 1.7 3.4 2.8 5.7 2.9 0-.2-.1-.4-.1-.6 0-1.5 1.2-2.8 2.8-2.8.8 0 1.5.3 2 .9.6-.1 1.2-.4 1.8-.7-.2.6-.6 1.2-1.2 1.5.6-.1 1.1-.2 1.6-.4-.5.5-1 1-1.5 1.4z"/>
</svg>
